<?xml version="1.0" encoding="UTF-8" standalone="no"?>
<!-- Created with Inkscape (http://www.inkscape.org/) -->

<svg
   xmlns:dc="http://purl.org/dc/elements/1.1/"
   xmlns:cc="http://creativecommons.org/ns#"
   xmlns:rdf="http://www.w3.org/1999/02/22-rdf-syntax-ns#"
   xmlns:svg="http://www.w3.org/2000/svg"
   xmlns="http://www.w3.org/2000/svg"
   xmlns:sodipodi="http://sodipodi.sourceforge.net/DTD/sodipodi-0.dtd"
   xmlns:inkscape="http://www.inkscape.org/namespaces/inkscape"
   width="64px"
   height="64px"
   id="svg3883"
   version="1.1"
   inkscape:version="0.48.2 r9819"
   sodipodi:docname="dino_icon.svg">
  <defs
     id="defs3885" />
  <sodipodi:namedview
     id="base"
     pagecolor="#ffffff"
     bordercolor="#666666"
     borderopacity="1.0"
     inkscape:pageopacity="0.0"
     inkscape:pageshadow="2"
     inkscape:zoom="8"
     inkscape:cx="18.81278"
     inkscape:cy="39.391038"
     inkscape:current-layer="layer1"
     showgrid="true"
     inkscape:document-units="px"
     inkscape:grid-bbox="true"
     inkscape:window-width="1217"
     inkscape:window-height="855"
     inkscape:window-x="241"
     inkscape:window-y="37"
     inkscape:window-maximized="0" />
  <metadata
     id="metadata3888">
    <rdf:RDF>
      <cc:Work
         rdf:about="">
        <dc:format>image/svg+xml</dc:format>
        <dc:type
           rdf:resource="http://purl.org/dc/dcmitype/StillImage" />
        <dc:title></dc:title>
      </cc:Work>
    </rdf:RDF>
  </metadata>
  <g
     id="layer1"
     inkscape:label="Layer 1"
     inkscape:groupmode="layer">
    <rect
       id="rect3891"
       width="3"
       height="3"
       x="9.375"
       y="24.375"
       style="fill:#72af38;fill-opacity:1" />
    <rect
       id="rect3891-0"
       width="3"
       height="3"
       x="39.375"
       y="57.375"
       style="fill:#608830;fill-opacity:1" />
    <rect
       id="rect3891-0-4"
       width="3"
       height="3"
       x="36.375"
       y="57.375"
       style="fill:#608830;fill-opacity:1" />
    <rect
       id="rect3891-0-9"
       width="3"
       height="3"
       x="15.375"
       y="57.375"
       style="fill:#608830;fill-opacity:1" />
    <rect
       id="rect3891-0-7"
       width="3"
       height="3"
       x="18.375"
       y="57.375"
       style="fill:#608830;fill-opacity:1" />
    <rect
       id="rect3891-1-8"
       width="3"
       height="3"
       x="24.375"
       y="57.375"
       style="fill:#7fa154;fill-opacity:1" />
    <rect
       id="rect3891-1-88"
       width="3"
       height="3"
       x="27.375"
       y="57.375"
       style="fill:#7fa154;fill-opacity:1" />
    <rect
       id="rect3891-1-4"
       width="3"
       height="3"
       x="48.375"
       y="57.375"
       style="fill:#7fa154;fill-opacity:1" />
    <rect
       id="rect3891-1-5"
       width="3"
       height="3"
       x="45.375"
       y="57.375"
       style="fill:#7fa154;fill-opacity:1" />
    <rect
       id="rect3891-1-9-8"
       width="3"
       height="3"
       x="0.375"
       y="27.375"
       style="fill:#000000;fill-opacity:1" />
    <rect
       id="rect3891-1-8-3"
       width="3"
       height="3"
       x="24.375"
       y="54.375"
       style="fill:#7fa154;fill-opacity:1" />
    <rect
       id="rect3891-1-8-2"
       width="3"
       height="3"
       x="21.375"
       y="54.375"
       style="fill:#7fa154;fill-opacity:1" />
    <rect
       id="rect3891-1-8-21"
       width="3"
       height="3"
       x="18.375"
       y="54.375"
       style="fill:#7fa154;fill-opacity:1" />
    <rect
       id="rect3891-1-8-4"
       width="3"
       height="3"
       x="15.375"
       y="54.375"
       style="fill:#7fa154;fill-opacity:1" />
    <rect
       id="rect3891-1-8-7"
       width="3"
       height="3"
       x="21.375"
       y="51.375"
       style="fill:#7fa154;fill-opacity:1" />
    <rect
       id="rect3891-1-8-70"
       width="3"
       height="3"
       x="21.375"
       y="48.375"
       style="fill:#7fa154;fill-opacity:1" />
    <rect
       id="rect3891-1-8-9"
       width="3"
       height="3"
       x="24.375"
       y="48.375"
       style="fill:#7fa154;fill-opacity:1" />
    <rect
       id="rect3891-1-8-5"
       width="3"
       height="3"
       x="18.375"
       y="45.375"
       style="fill:#7fa154;fill-opacity:1" />
    <rect
       id="rect3891-1-8-72"
       width="3"
       height="3"
       x="18.375"
       y="42.375"
       style="fill:#7fa154;fill-opacity:1" />
    <rect
       id="rect3891-1-8-97"
       width="3"
       height="3"
       x="21.375"
       y="42.375"
       style="fill:#7fa154;fill-opacity:1" />
    <rect
       id="rect3891-8"
       width="3"
       height="3"
       x="54.375"
       y="51.375"
       style="fill:#72af38;fill-opacity:1" />
    <rect
       id="rect3891-2"
       width="3"
       height="3"
       x="45.375"
       y="39.375"
       style="fill:#72af38;fill-opacity:1" />
    <rect
       id="rect3891-9"
       width="3"
       height="3"
       x="48.375"
       y="42.375"
       style="fill:#72af38;fill-opacity:1" />
    <rect
       id="rect3891-98"
       width="3"
       height="3"
       x="51.375"
       y="45.375"
       style="fill:#72af38;fill-opacity:1" />
    <rect
       id="rect3891-3"
       width="3"
       height="3"
       x="48.375"
       y="51.375"
       style="fill:#72af38;fill-opacity:1" />
    <rect
       id="rect3891-7"
       width="3"
       height="3"
       x="48.375"
       y="48.375"
       style="fill:#72af38;fill-opacity:1" />
    <rect
       id="rect3891-12"
       width="3"
       height="3"
       x="27.375"
       y="54.375"
       style="fill:#72af38;fill-opacity:1" />
    <rect
       id="rect3891-1-5-6"
       width="3"
       height="3"
       x="30.375"
       y="54.375"
       style="fill:#7fa154;fill-opacity:1" />
    <rect
       id="rect3891-1-5-1"
       width="3"
       height="3"
       x="33.375"
       y="54.375"
       style="fill:#7fa154;fill-opacity:1" />
    <rect
       id="rect3891-1-5-7"
       width="3"
       height="3"
       x="36.375"
       y="54.375"
       style="fill:#7fa154;fill-opacity:1" />
    <rect
       id="rect3891-1-5-7-6"
       width="3"
       height="3"
       x="39.375"
       y="54.375"
       style="fill:#7fa154;fill-opacity:1" />
    <rect
       id="rect3891-1-5-7-5"
       width="3"
       height="3"
       x="42.375"
       y="54.375"
       style="fill:#7fa154;fill-opacity:1" />
    <rect
       id="rect3891-1-5-7-0"
       width="3"
       height="3"
       x="45.375"
       y="54.375"
       style="fill:#7fa154;fill-opacity:1" />
    <rect
       id="rect3891-1-5-7-4"
       width="3"
       height="3"
       x="42.375"
       y="51.375"
       style="fill:#7fa154;fill-opacity:1" />
    <rect
       id="rect3891-1-5-7-51"
       width="3"
       height="3"
       x="42.375"
       y="48.375"
       style="fill:#7fa154;fill-opacity:1" />
    <rect
       id="rect3891-1-5-7-2"
       width="3"
       height="3"
       x="45.375"
       y="48.375"
       style="fill:#7fa154;fill-opacity:1" />
    <rect
       id="rect3891-7-3"
       width="3"
       height="3"
       x="45.375"
       y="51.375"
       style="fill:#72af38;fill-opacity:1" />
    <rect
       id="rect3891-7-7"
       width="3"
       height="3"
       x="51.375"
       y="48.375"
       style="fill:#72af38;fill-opacity:1" />
    <rect
       id="rect3891-7-2"
       width="3"
       height="3"
       x="24.375"
       y="51.375"
       style="fill:#72af38;fill-opacity:1" />
    <rect
       id="rect3891-7-4"
       width="3"
       height="3"
       x="27.375"
       y="51.375"
       style="fill:#72af38;fill-opacity:1" />
    <rect
       id="rect3891-7-1"
       width="3"
       height="3"
       x="30.375"
       y="51.375"
       style="fill:#72af38;fill-opacity:1" />
    <rect
       id="rect3891-7-8"
       width="3"
       height="3"
       x="33.375"
       y="51.375"
       style="fill:#72af38;fill-opacity:1" />
    <rect
       id="rect3891-7-26"
       width="3"
       height="3"
       x="36.375"
       y="51.375"
       style="fill:#72af38;fill-opacity:1" />
    <rect
       id="rect3891-7-0"
       width="3"
       height="3"
       x="39.375"
       y="48.375"
       style="fill:#72af38;fill-opacity:1" />
    <rect
       id="rect3891-7-39"
       width="3"
       height="3"
       x="57.375"
       y="54.375"
       style="fill:#72af38;fill-opacity:1" />
    <rect
       id="rect3891-7-49"
       width="3"
       height="3"
       x="60.375"
       y="54.375"
       style="fill:#72af38;fill-opacity:1" />
    <rect
       id="rect3891-7-6"
       width="3"
       height="3"
       x="57.375"
       y="51.375"
       style="fill:#72af38;fill-opacity:1" />
    <rect
       id="rect3891-7-5"
       width="3"
       height="3"
       x="21.375"
       y="45.375"
       style="fill:#72af38;fill-opacity:1" />
    <rect
       id="rect3891-1-8-97-0"
       width="3"
       height="3"
       x="21.375"
       y="39.375"
       style="fill:#7fa154;fill-opacity:1" />
    <rect
       id="rect3891-1-8-97-3"
       width="3"
       height="3"
       x="24.375"
       y="39.375"
       style="fill:#7fa154;fill-opacity:1" />
    <rect
       id="rect3891-1-8-97-9"
       width="3"
       height="3"
       x="24.375"
       y="36.375"
       style="fill:#7fa154;fill-opacity:1" />
    <rect
       id="rect3891-1-8-97-5"
       width="3"
       height="3"
       x="27.375"
       y="36.375"
       style="fill:#7fa154;fill-opacity:1" />
    <rect
       id="rect3891-1-8-97-31"
       width="3"
       height="3"
       x="30.375"
       y="33.375"
       style="fill:#7fa154;fill-opacity:1" />
    <rect
       id="rect3891-1-8-97-1"
       width="3"
       height="3"
       x="33.375"
       y="33.375"
       style="fill:#7fa154;fill-opacity:1" />
    <rect
       id="rect3891-1-8-97-2"
       width="3"
       height="3"
       x="33.375"
       y="36.375"
       style="fill:#7fa154;fill-opacity:1" />
    <rect
       id="rect3891-1-8-97-6"
       width="3"
       height="3"
       x="36.375"
       y="33.375"
       style="fill:#7fa154;fill-opacity:1" />
    <rect
       id="rect3891-1-8-97-91"
       width="3"
       height="3"
       x="39.375"
       y="33.375"
       style="fill:#7fa154;fill-opacity:1" />
    <rect
       id="rect3891-98-9"
       width="3"
       height="3"
       x="27.375"
       y="48.375"
       style="fill:#72af38;fill-opacity:1" />
    <rect
       id="rect3891-98-0"
       width="3"
       height="3"
       x="24.375"
       y="45.375"
       style="fill:#72af38;fill-opacity:1" />
    <rect
       id="rect3891-98-6"
       width="3"
       height="3"
       x="24.375"
       y="42.375"
       style="fill:#72af38;fill-opacity:1" />
    <rect
       id="rect3891-98-1"
       width="3"
       height="3"
       x="27.375"
       y="45.375"
       style="fill:#72af38;fill-opacity:1" />
    <rect
       id="rect3891-98-7"
       width="3"
       height="3"
       x="27.375"
       y="42.375"
       style="fill:#72af38;fill-opacity:1" />
    <rect
       id="rect3891-98-3"
       width="3"
       height="3"
       x="27.375"
       y="39.375"
       style="fill:#72af38;fill-opacity:1" />
    <rect
       id="rect3891-98-8"
       width="3"
       height="3"
       x="30.375"
       y="36.375"
       style="fill:#72af38;fill-opacity:1" />
    <rect
       id="rect3891-98-70"
       width="3"
       height="3"
       x="30.375"
       y="39.375"
       style="fill:#72af38;fill-opacity:1" />
    <rect
       id="rect3891-98-36"
       width="3"
       height="3"
       x="30.375"
       y="45.375"
       style="fill:#72af38;fill-opacity:1" />
    <rect
       id="rect3891-98-91"
       width="3"
       height="3"
       x="30.375"
       y="48.375"
       style="fill:#72af38;fill-opacity:1" />
    <rect
       id="rect3891-98-4"
       width="3"
       height="3"
       x="33.375"
       y="48.375"
       style="fill:#72af38;fill-opacity:1" />
    <rect
       id="rect3891-98-14"
       width="3"
       height="3"
       x="33.375"
       y="45.375"
       style="fill:#72af38;fill-opacity:1" />
    <rect
       id="rect3891-98-61"
       width="3"
       height="3"
       x="33.375"
       y="42.375"
       style="fill:#72af38;fill-opacity:1" />
    <rect
       id="rect3891-98-02"
       width="3"
       height="3"
       x="36.375"
       y="48.375"
       style="fill:#72af38;fill-opacity:1" />
    <rect
       id="rect3891-98-40"
       width="3"
       height="3"
       x="39.375"
       y="45.375"
       style="fill:#72af38;fill-opacity:1" />
    <rect
       id="rect3891-98-43"
       width="3"
       height="3"
       x="36.375"
       y="45.375"
       style="fill:#72af38;fill-opacity:1" />
    <rect
       id="rect3891-98-17"
       width="3"
       height="3"
       x="36.375"
       y="42.375"
       style="fill:#72af38;fill-opacity:1" />
    <rect
       id="rect3891-98-94"
       width="3"
       height="3"
       x="36.375"
       y="39.375"
       style="fill:#72af38;fill-opacity:1" />
    <rect
       id="rect3891-98-701"
       width="3"
       height="3"
       x="39.375"
       y="36.375"
       style="fill:#72af38;fill-opacity:1" />
    <rect
       id="rect3891-98-15"
       width="3"
       height="3"
       x="42.375"
       y="36.375"
       style="fill:#72af38;fill-opacity:1" />
    <rect
       id="rect3891-98-2"
       width="3"
       height="3"
       x="39.375"
       y="39.375"
       style="fill:#72af38;fill-opacity:1" />
    <rect
       id="rect3891-98-49"
       width="3"
       height="3"
       x="48.375"
       y="45.375"
       style="fill:#72af38;fill-opacity:1" />
    <rect
       id="rect3891-98-77"
       width="3"
       height="3"
       x="42.375"
       y="42.375"
       style="fill:#72af38;fill-opacity:1" />
    <rect
       id="rect3891-98-20"
       width="3"
       height="3"
       x="42.375"
       y="39.375"
       style="fill:#72af38;fill-opacity:1" />
    <rect
       id="rect3891-98-90"
       width="3"
       height="3"
       x="18.375"
       y="48.375"
       style="fill:#72af38;fill-opacity:1" />
    <rect
       id="rect3891-98-71"
       width="3"
       height="3"
       x="18.375"
       y="51.375"
       style="fill:#72af38;fill-opacity:1" />
    <rect
       id="rect3891-98-60"
       width="3"
       height="3"
       x="15.375"
       y="51.375"
       style="fill:#72af38;fill-opacity:1" />
    <rect
       id="rect3891-98-92"
       width="3"
       height="3"
       x="15.375"
       y="48.375"
       style="fill:#72af38;fill-opacity:1" />
    <rect
       id="rect3891-98-96"
       width="3"
       height="3"
       x="45.375"
       y="42.375"
       style="fill:#72af38;fill-opacity:1" />
    <rect
       id="rect3891-98-028"
       width="3"
       height="3"
       x="54.375"
       y="48.375"
       style="fill:#72af38;fill-opacity:1" />
    <rect
       id="rect3891-1-8-6-4"
       width="3"
       height="3"
       x="12.375"
       y="48.375"
       style="fill:#7fa154;fill-opacity:1" />
    <rect
       id="rect3891-1-8-6-48"
       width="3"
       height="3"
       x="15.375"
       y="45.375"
       style="fill:#7fa154;fill-opacity:1" />
    <rect
       id="rect3891-1-8-6-0"
       width="3"
       height="3"
       x="0.375"
       y="24.375"
       style="fill:#7fa154;fill-opacity:1" />
    <rect
       id="rect3891-1-8-6-1"
       width="3"
       height="3"
       x="3.375"
       y="24.375"
       style="fill:#7fa154;fill-opacity:1" />
    <rect
       id="rect3891-98-60-9"
       width="3"
       height="3"
       x="12.375"
       y="51.375"
       style="fill:#72af38;fill-opacity:1" />
    <rect
       id="rect3891-98-60-6"
       width="3"
       height="3"
       x="6.375"
       y="45.375"
       style="fill:#72af38;fill-opacity:1" />
    <rect
       id="rect3891-98-60-3"
       width="3"
       height="3"
       x="9.375"
       y="39.375"
       style="fill:#72af38;fill-opacity:1" />
    <rect
       id="rect3891-98-60-1"
       width="3"
       height="3"
       x="9.375"
       y="36.375"
       style="fill:#72af38;fill-opacity:1" />
    <rect
       id="rect3891-98-60-5"
       width="3"
       height="3"
       x="9.375"
       y="33.375"
       style="fill:#72af38;fill-opacity:1" />
    <rect
       id="rect3891-98-60-8"
       width="3"
       height="3"
       x="9.375"
       y="30.375"
       style="fill:#72af38;fill-opacity:1" />
    <rect
       id="rect3891-98-60-0"
       width="3"
       height="3"
       x="6.375"
       y="24.375"
       style="fill:#72af38;fill-opacity:1" />
    <rect
       id="rect3891-98-60-92"
       width="3"
       height="3"
       x="3.375"
       y="27.375"
       style="fill:#72af38;fill-opacity:1" />
    <rect
       id="rect3891-98-60-4"
       width="3"
       height="3"
       x="0.375"
       y="30.375"
       style="fill:#72af38;fill-opacity:1" />
    <rect
       id="rect3891-98-60-33"
       width="3"
       height="3"
       x="3.375"
       y="30.375"
       style="fill:#72af38;fill-opacity:1" />
    <rect
       id="rect3891-98-60-90"
       width="3"
       height="3"
       x="6.375"
       y="30.375"
       style="fill:#72af38;fill-opacity:1" />
    <rect
       id="rect3891-98-60-55"
       width="3"
       height="3"
       x="6.375"
       y="33.375"
       style="fill:#72af38;fill-opacity:1" />
    <rect
       id="rect3891-98-60-44"
       width="3"
       height="3"
       x="6.375"
       y="36.375"
       style="fill:#72af38;fill-opacity:1" />
    <rect
       id="rect3891-98-60-38"
       width="3"
       height="3"
       x="6.375"
       y="39.375"
       style="fill:#72af38;fill-opacity:1" />
    <rect
       id="rect3891-98-60-2"
       width="3"
       height="3"
       x="6.375"
       y="42.375"
       style="fill:#72af38;fill-opacity:1" />
    <rect
       id="rect3891-98-60-26"
       width="3"
       height="3"
       x="9.375"
       y="27.375"
       style="fill:#72af38;fill-opacity:1" />
    <rect
       id="rect3891-1-9-8-4"
       width="3"
       height="3"
       x="6.375"
       y="27.375"
       style="fill:#000000;fill-opacity:1" />
    <rect
       id="rect3891-1-8-6-48-3"
       width="3"
       height="3"
       x="9.375"
       y="45.375"
       style="fill:#7fa154;fill-opacity:1" />
    <rect
       id="rect3891-98-60-6-1"
       width="3"
       height="3"
       x="9.375"
       y="48.375"
       style="fill:#72af38;fill-opacity:1" />
    <rect
       id="rect3891-98-60-2-5"
       width="3"
       height="3"
       x="9.375"
       y="42.375"
       style="fill:#72af38;fill-opacity:1" />
    <rect
       id="rect3891-98-70-1"
       width="3"
       height="3"
       x="42.375"
       y="45.375"
       style="fill:#72af38;fill-opacity:1" />
    <rect
       id="rect3891-98-61-6"
       width="3"
       height="3"
       x="33.375"
       y="39.375"
       style="fill:#72af38;fill-opacity:1" />
    <rect
       id="rect3891-98-94-0"
       width="3"
       height="3"
       x="36.375"
       y="36.375"
       style="fill:#72af38;fill-opacity:1" />
    <rect
       id="rect3891-7-0-2"
       width="3"
       height="3"
       x="39.375"
       y="51.375"
       style="fill:#72af38;fill-opacity:1" />
    <rect
       id="rect3891-1-8-9-5"
       width="3"
       height="3"
       x="30.375"
       y="42.375"
       style="fill:#7fa154;fill-opacity:1" />
    <rect
       id="rect3891-98-70-1-3"
       width="3"
       height="3"
       x="45.375"
       y="45.375"
       style="fill:#72af38;fill-opacity:1" />
    <rect
       id="rect3891-7-3-5"
       width="3"
       height="3"
       x="48.375"
       y="54.375"
       style="fill:#72af38;fill-opacity:1" />
    <rect
       id="rect3891-7-49-9"
       width="3"
       height="3"
       x="60.375"
       y="57.375"
       style="fill:#72af38;fill-opacity:1" />
    <rect
       id="rect3891-1-5-7-2-8"
       width="3"
       height="3"
       x="51.375"
       y="51.375"
       style="fill:#7fa154;fill-opacity:1" />
    <rect
       id="rect3891-98-22"
       width="3"
       height="3"
       x="6.375"
       y="48.375"
       style="fill:#72af38;fill-opacity:1" />
    <rect
       id="rect3891-98-22-9"
       width="3"
       height="3"
       x="9.375"
       y="51.375"
       style="fill:#72af38;fill-opacity:1" />
    <rect
       id="rect3891-1-8-9-5-1"
       width="3"
       height="3"
       x="39.375"
       y="42.375"
       style="fill:#7fa154;fill-opacity:1" />
    <rect
       id="rect3891-1-8-6-1-2"
       width="3"
       height="3"
       x="3.375"
       y="21.375"
       style="fill:#7fa154;fill-opacity:1" />
    <rect
       id="rect3891-1-8-6-1-8"
       width="3"
       height="3"
       x="6.375"
       y="21.375"
       style="fill:#7fa154;fill-opacity:1" />
    <rect
       id="rect3891-98-701-8"
       width="3"
       height="3"
       x="44"
       y="6.375"
       style="fill:#3f3f3f;fill-opacity:0.94901961" />
    <rect
       id="rect3891-98-701-8-5"
       width="3"
       height="3"
       x="41"
       y="-21.375"
       style="fill:#2f2f2f;fill-opacity:0.94901961"
       transform="scale(1,-1)" />
    <rect
       id="rect3891-98-701-8-5-4"
       width="3"
       height="3"
       x="41"
       y="-18.375"
       style="fill:#2f2f2f;fill-opacity:0.94901961"
       transform="scale(1,-1)" />
    <rect
       id="rect3891-98-701-8-5-9"
       width="3"
       height="3"
       x="41"
       y="-15.375"
       style="fill:#2f2f2f;fill-opacity:0.94901961"
       transform="scale(1,-1)" />
    <rect
       id="rect3891-98-701-8-5-1"
       width="3"
       height="3"
       x="41"
       y="-12.375"
       style="fill:#2f2f2f;fill-opacity:0.94901961"
       transform="scale(1,-1)" />
    <rect
       id="rect3891-98-701-8-5-0"
       width="3"
       height="3"
       x="41"
       y="-9.375"
       style="fill:#2f2f2f;fill-opacity:0.94901961"
       transform="scale(1,-1)" />
    <rect
       id="rect3891-98-701-8-5-3-5"
       width="3"
       height="3"
       x="47"
       y="-9.375"
       style="fill:#9a9a9a;fill-opacity:0.94901961"
       transform="scale(1,-1)" />
    <rect
       id="rect3891-98-701-8-5-3-0"
       width="3"
       height="3"
       x="50"
       y="-9.375"
       style="fill:#9a9a9a;fill-opacity:0.94901961"
       transform="scale(1,-1)" />
    <rect
       id="rect3891-98-701-8-9"
       width="3"
       height="3"
       x="44"
       y="9.375"
       style="fill:#3f3f3f;fill-opacity:0.94901961" />
    <rect
       id="rect3891-98-701-8-5-3-5-5"
       width="3"
       height="3"
       x="47"
       y="-12.375"
       style="fill:#9a9a9a;fill-opacity:0.94901961"
       transform="scale(1,-1)" />
    <rect
       id="rect3891-98-701-8-8-3"
       width="3"
       height="3"
       x="50"
       y="9.375"
       style="fill:#3f3f3f;fill-opacity:0.94901961" />
    <rect
       id="rect3891-98-701-8-5-3-2"
       width="3"
       height="3"
       x="53"
       y="-9.375"
       style="fill:#9a9a9a;fill-opacity:0.94901961"
       transform="scale(1,-1)" />
    <rect
       id="rect3891-98-701-8-5-3-2-5"
       width="3"
       height="3"
       x="53"
       y="-12.375"
       style="fill:#9a9a9a;fill-opacity:0.94901961"
       transform="scale(1,-1)" />
    <rect
       id="rect3891-98-701-8-5-94-0"
       width="3"
       height="3"
       x="56"
       y="-12.375"
       style="fill:#2f2f2f;fill-opacity:0.94901961"
       transform="scale(1,-1)" />
    <rect
       id="rect3891-98-701-8-5-94-1"
       width="3"
       height="3"
       x="56"
       y="6.375"
       style="fill:#2f2f2f;fill-opacity:0.94901961" />
    <rect
       id="rect3891-98-701-8-5-94-0-8"
       width="3"
       height="3"
       x="56"
       y="-15.375"
       style="fill:#2f2f2f;fill-opacity:0.94901961"
       transform="scale(1,-1)" />
    <rect
       id="rect3891-98-701-8-5-94-0-3"
       width="3"
       height="3"
       x="56"
       y="15.375"
       style="fill:#2f2f2f;fill-opacity:0.94901961" />
    <rect
       id="rect3891-98-701-8-5-94-0-9"
       width="3"
       height="3"
       x="56"
       y="-21.375"
       style="fill:#2f2f2f;fill-opacity:0.94901961"
       transform="scale(1,-1)" />
    <rect
       id="rect3891-98-701-8-5-94-0-6"
       width="3"
       height="3"
       x="44"
       y="-15.375"
       style="fill:#2f2f2f;fill-opacity:0.94901961"
       transform="scale(1,-1)" />
    <rect
       id="rect3891-98-701-8-5-94-0-4"
       width="3"
       height="3"
       x="47"
       y="-15.375"
       style="fill:#2f2f2f;fill-opacity:0.94901961"
       transform="scale(1,-1)" />
    <rect
       id="rect3891-98-701-8-5-94-0-7"
       width="3"
       height="3"
       x="50"
       y="-15.375"
       style="fill:#2f2f2f;fill-opacity:0.94901961"
       transform="scale(1,-1)" />
    <rect
       id="rect3891-98-701-8-5-94-0-73"
       width="3"
       height="3"
       x="53"
       y="-15.375"
       style="fill:#2f2f2f;fill-opacity:0.94901961"
       transform="scale(1,-1)" />
    <rect
       id="rect3891-98-701-8-5-94-0-9-9"
       width="3"
       height="3"
       x="56"
       y="-24.375"
       style="fill:#2f2f2f;fill-opacity:0.94901961"
       transform="scale(1,-1)" />
    <rect
       id="rect3891-98-701-8-5-94-0-9-6"
       width="3"
       height="3"
       x="41"
       y="-24.375"
       style="fill:#2f2f2f;fill-opacity:0.94901961"
       transform="scale(1,-1)" />
    <rect
       id="rect3891-98-701-8-5-94-0-9-6-0"
       width="3"
       height="3"
       x="44"
       y="-24.375"
       style="fill:#ff0000;fill-opacity:0.94901961"
       transform="scale(1,-1)" />
    <rect
       id="rect3891-98-701-8-5-94-0-9-6-0-1"
       width="3"
       height="3"
       x="47"
       y="-24.375"
       style="fill:#ff0000;fill-opacity:0.94901961"
       transform="scale(1,-1)" />
    <rect
       id="rect3891-98-701-8-5-94-0-9-6-0-8"
       width="3"
       height="3"
       x="50"
       y="-24.375"
       style="fill:#ff0000;fill-opacity:0.94901961"
       transform="scale(1,-1)" />
    <rect
       id="rect3891-98-701-8-5-94-0-9-6-0-5"
       width="3"
       height="3"
       x="53"
       y="-24.375"
       style="fill:#ff0000;fill-opacity:0.94901961"
       transform="scale(1,-1)" />
  </g>
</svg>
